<svg width="146" height="54" viewBox="0 0 146 54" fill="none" xmlns="http://www.w3.org/2000/svg">
<path d="M30.6525 3.04668C28.7017 1.0823 26.1077 0 23.3482 0C20.9476 0 18.6718 0.819218 16.8361 2.32612C12.7825 -0.993317 6.79362 -0.752483 3.02057 3.04668C-1.00686 7.10216 -1.00686 13.7014 3.02057 17.7568L9.97281 24.7584L12.888 21.8239L5.93571 14.8224C3.51481 12.385 3.51481 8.41948 5.93571 5.98214C7.14568 4.76346 8.73479 4.15413 10.3249 4.15413C11.914 4.15413 13.5041 4.76346 14.714 5.98214L16.8361 8.11965L18.9591 5.98214C20.1313 4.80119 21.6904 4.15123 23.3482 4.15123C25.006 4.15123 26.5651 4.80119 27.7374 5.98214C30.1573 8.41948 30.1573 12.385 27.7374 14.8224L25.6299 16.9444L28.545 19.8798L30.6525 17.7568C34.68 13.7014 34.68 7.10216 30.6525 3.04668Z" fill="#6E4FEB"/>
<path d="M16.8318 31.7005L11.2114 26.0405L14.1266 23.105L16.8318 25.8296L24.5114 18.0959L27.4266 21.0313L16.8318 31.7005Z" fill="#4FCCEB"/>
<path d="M40.6211 20.2371H46.2608C46.2367 20.4605 46.2251 20.6211 46.2251 20.7178C46.2251 21.214 46.3111 21.6976 46.4862 22.1696C47.2 24.1775 48.9719 25.1814 51.801 25.1814C53.1763 25.1814 54.3447 24.957 55.3051 24.5092C56.5606 23.9415 57.1883 23.0371 57.1883 21.7972C57.1883 20.5089 56.3023 19.6055 54.5304 19.0852L52.3503 18.4497L48.8104 17.5241C43.9637 16.26 41.5399 13.9193 41.5399 10.5032C41.5399 9.71008 41.6512 8.83089 41.8736 7.86273C42.3659 5.73392 43.6687 4.14964 45.783 3.1099C47.5308 2.23845 49.6093 1.80225 52.0176 1.80225C58.1429 1.80225 61.5997 4.3189 62.386 9.35125C62.4402 9.67139 62.4673 9.90739 62.4673 10.0583V10.7933H56.9987V10.0583C56.9987 8.79414 56.459 7.83855 55.3777 7.19149C54.4946 6.64695 53.3862 6.37517 52.0534 6.37517H51.4315C51.209 6.39935 50.9876 6.42353 50.7651 6.44771C48.3568 6.64695 47.1526 7.62673 47.1526 9.38703C47.1526 10.5719 48.0231 11.4007 49.765 11.8727L56.5219 13.6959C60.7795 14.8333 62.9093 17.1981 62.9093 20.7903C62.9093 21.5583 62.798 22.3775 62.5756 23.249C62.0107 25.4987 60.6683 27.1951 58.5491 28.3384C56.753 29.3297 54.603 29.8259 52.0979 29.8259H50.621L49.6567 29.6712C46.876 29.2543 44.723 28.29 43.1977 26.7783C41.48 25.0905 40.6211 22.9104 40.6211 20.2371Z" fill="#6E4FEB"/>
<path d="M84.1255 20.7902H69.7809L69.8167 21.3889C70.1833 23.7663 71.4107 25.1784 73.4998 25.6262C73.848 25.6988 74.1933 25.7345 74.5357 25.7345C76.0126 25.7345 77.1684 25.1784 78.0021 24.0652C78.272 23.6908 78.4558 23.3185 78.5515 22.949H83.9369C83.4204 25.1262 82.2762 26.8352 80.5062 28.0752C78.8368 29.2668 76.8715 29.8626 74.6073 29.8626C73.9409 29.8626 73.1671 29.7862 72.2841 29.6353C69.7751 29.2184 67.8088 28.0297 66.3861 26.0702C65.0291 24.2141 64.3511 21.9731 64.3511 19.3481C64.3511 16.1003 65.2631 13.4598 67.0883 11.4277C68.9076 9.4198 71.4136 8.41681 74.6073 8.41681C77.6569 8.41681 80.0313 9.45655 81.7307 11.537C83.3276 13.4724 84.1255 16.0006 84.1255 19.1208V20.7902ZM69.8525 16.8895H78.7043L78.6686 16.2985C78.5902 15.1534 78.1221 14.2074 77.2642 13.4627C76.4053 12.7479 75.3965 12.3901 74.2388 12.3901C73.11 12.3901 72.1525 12.7595 71.3662 13.4985C70.5789 14.2684 70.0991 15.2259 69.9251 16.3711L69.8525 16.8895Z" fill="#6E4FEB"/>
<path d="M91.7195 2.43814H86.4048V29.1909H91.7195V2.43814Z" fill="#6E4FEB"/>
<path d="M113.792 20.7899H99.4479L99.4837 21.3886C99.8503 23.766 101.078 25.1781 103.167 25.6259C103.515 25.6985 103.86 25.7343 104.203 25.7343C105.679 25.7343 106.834 25.1781 107.669 24.0649C107.939 23.6906 108.123 23.3182 108.219 22.9487H113.604C113.087 25.1259 111.943 26.8349 110.172 28.0749C108.504 29.2665 106.538 29.8623 104.274 29.8623C103.608 29.8623 102.833 29.7859 101.951 29.635C99.4421 29.2181 97.4758 28.0294 96.0531 26.0699C94.6961 24.2138 94.0181 21.9728 94.0181 19.3478C94.0181 16.1 94.9301 13.4595 96.7552 11.4274C98.5746 9.41951 101.081 8.41652 104.274 8.41652C107.324 8.41652 109.698 9.45626 111.397 11.5367C112.994 13.4721 113.792 16.0003 113.792 19.1205V20.7899ZM99.5195 16.8892H108.371L108.336 16.2982C108.257 15.1531 107.789 14.2072 106.931 13.4624C106.072 12.7476 105.064 12.3898 103.906 12.3898C102.777 12.3898 101.819 12.7593 101.032 13.4982C100.246 14.2681 99.7661 15.2256 99.592 16.3708L99.5195 16.8892Z" fill="#6E4FEB"/>
<path d="M134.306 16.1089H129.063C129.063 14.8448 128.462 13.8805 127.261 13.215C126.666 12.8881 126.015 12.7247 125.306 12.7247C123.75 12.7247 122.555 13.3688 121.721 14.6581C121.006 15.752 120.648 17.1167 120.648 18.7484C120.648 21.9179 121.534 23.9626 123.306 24.8814C123.925 25.2025 124.564 25.3621 125.225 25.3621C126.504 25.3621 127.549 24.8669 128.361 23.8746C128.93 23.1849 129.216 22.3812 129.216 21.4614L134.486 21.6887C134.486 23.3213 133.861 24.9298 132.612 26.5141C130.84 28.7705 128.354 29.8983 125.153 29.8983C124.588 29.8983 123.925 29.8345 123.162 29.7078C120.555 29.2899 118.561 28.0538 117.18 25.9976C115.901 24.1106 115.261 21.7941 115.261 19.0482C115.261 16.3207 115.877 14.0526 117.108 12.244C118.435 10.2912 120.39 9.06575 122.972 8.57054C123.885 8.39451 124.735 8.30746 125.522 8.30746C128.645 8.30746 131.056 9.4594 132.756 11.7633C133.789 13.1725 134.306 14.6214 134.306 16.1089Z" fill="#6E4FEB"/>
<path d="M134.748 12.8794V9.12377H137.036V4.5876H142.351V9.12377H145.963V12.8794H142.351V22.6066C142.351 23.5979 142.387 24.2295 142.459 24.5013C142.657 25.2451 143.087 25.6165 143.747 25.6165C144.636 25.6165 145.387 25.4047 146 24.981V29.08C144.745 29.4988 143.465 29.7077 142.162 29.7077C138.744 29.7077 137.036 27.7395 137.036 23.802V12.8794H134.748Z" fill="#6E4FEB"/>
<path d="M41.2628 47.4904V37.2244H45.393C47.5175 37.2244 48.9586 38.4129 48.9586 40.3443C48.9586 42.4985 47.3541 43.5236 45.3336 43.5236H43.1942V47.4904H41.2628ZM43.1942 38.7843V41.9785H45.1256C46.2844 41.9785 46.9975 41.4734 46.9975 40.374C46.9975 39.2598 46.2101 38.7843 45.1701 38.7843H43.1942ZM52.225 47.4904H50.3679V36.6301H52.225V47.4904ZM60.2756 42.2757V45.6333C60.2756 46.3464 60.335 47.2972 60.3796 47.4904H58.6117C58.5522 47.3418 58.5077 46.9555 58.5077 46.6733C58.2254 47.119 57.6757 47.6687 56.294 47.6687C54.4518 47.6687 53.6792 46.4801 53.6792 45.3064C53.6792 43.5682 55.0609 42.7808 57.3191 42.7808C57.7351 42.7808 58.2105 42.7808 58.478 42.7808V42.246C58.478 41.6665 58.27 41.0277 57.1408 41.0277C56.1157 41.0277 55.9226 41.5031 55.8037 42.0677H54.0358C54.1546 40.8049 54.9272 39.6757 57.2003 39.6757C59.1911 39.6906 60.2756 40.478 60.2756 42.2757ZM58.478 44.1476V43.9396C58.2848 43.9396 57.8094 43.9396 57.4974 43.9396C56.1306 43.9396 55.5512 44.3408 55.5512 45.1876C55.5512 45.8264 55.9523 46.3316 56.7694 46.3316C58.2848 46.3316 58.478 45.2916 58.478 44.1476ZM62.3233 47.4904V41.7854C62.3233 41.1317 62.3233 40.4334 62.3084 39.854H64.1061C64.1358 40.062 64.1655 40.686 64.1655 40.9237C64.4478 40.3889 65.0718 39.6757 66.4535 39.6757C67.954 39.6757 68.994 40.6711 68.994 42.6174V47.4904H67.1369V42.8402C67.1369 41.8745 66.7952 41.206 65.7849 41.206C64.7152 41.206 64.1655 41.9043 64.1655 43.3156V47.4904H62.3233ZM74.2827 39.6757C76.4815 39.6757 77.9078 41.2654 77.9078 43.6573C77.9078 45.9453 76.5707 47.6687 74.1787 47.6687C71.8759 47.6687 70.5091 45.9899 70.5091 43.7019C70.5091 41.3843 71.8908 39.6757 74.2827 39.6757ZM74.2085 41.1466C73.0645 41.1466 72.3959 42.0231 72.3959 43.6722C72.3959 45.2173 73.0942 46.2127 74.2382 46.2127C75.3821 46.2127 76.0358 45.2322 76.0358 43.6871C76.0358 42.0528 75.3821 41.1466 74.2085 41.1466ZM88.061 36.6301H89.9032V45.3807C89.9032 46.079 89.9032 46.7921 89.9181 47.4904H88.1501C88.1055 47.2824 88.0758 46.8218 88.061 46.599C87.6895 47.2675 86.9913 47.6687 85.8176 47.6687C83.8714 47.6687 82.6531 46.1087 82.6531 43.7465C82.6531 41.3991 83.9605 39.6757 86.0999 39.6757C87.2884 39.6757 87.8827 40.1214 88.061 40.4929V36.6301ZM86.397 41.1763C85.2085 41.1763 84.5548 42.1122 84.5548 43.7019C84.5548 45.3064 85.2382 46.183 86.3227 46.183C87.8827 46.183 88.1353 44.935 88.1353 43.6425C88.1353 42.2014 87.8975 41.1763 86.397 41.1763ZM98.4283 44.0585H93.2879C93.2879 45.2173 93.8673 46.2127 94.9964 46.2127C95.9918 46.2127 96.2889 45.767 96.4969 45.2619H98.354C98.0717 46.2127 97.2398 47.6687 94.9518 47.6687C92.4707 47.6687 91.4159 45.767 91.4159 43.7762C91.4159 41.4288 92.6193 39.6757 95.0261 39.6757C97.5963 39.6757 98.458 41.6071 98.458 43.4196C98.458 43.6722 98.458 43.8505 98.4283 44.0585ZM93.3324 42.8848H96.6009C96.5861 41.8745 96.1404 41.0426 95.0261 41.0426C93.897 41.0426 93.4216 41.8151 93.3324 42.8848ZM103.052 44.5339H104.998C105.251 45.6333 106.023 46.1681 107.316 46.1681C108.653 46.1681 109.202 45.6036 109.202 44.7716C109.202 43.8653 108.697 43.4345 106.84 42.9888C104.166 42.3648 103.423 41.414 103.423 40.0026C103.423 38.2941 104.701 37.0758 107.078 37.0758C109.708 37.0758 110.777 38.5169 110.911 39.9729H108.965C108.831 39.2449 108.415 38.5318 107.019 38.5318C106.008 38.5318 105.399 38.9775 105.399 39.7946C105.399 40.582 105.889 40.9089 107.598 41.31C110.569 42.0231 111.178 43.1374 111.178 44.5488C111.178 46.3464 109.826 47.639 107.182 47.639C104.582 47.639 103.289 46.3167 103.052 44.5339ZM118.89 42.2757V45.6333C118.89 46.3464 118.95 47.2972 118.994 47.4904H117.226C117.167 47.3418 117.122 46.9555 117.122 46.6733C116.84 47.119 116.29 47.6687 114.908 47.6687C113.066 47.6687 112.294 46.4801 112.294 45.3064C112.294 43.5682 113.675 42.7808 115.934 42.7808C116.35 42.7808 116.825 42.7808 117.092 42.7808V42.246C117.092 41.6665 116.884 41.0277 115.755 41.0277C114.73 41.0277 114.537 41.5031 114.418 42.0677H112.65C112.769 40.8049 113.542 39.6757 115.815 39.6757C117.806 39.6906 118.89 40.478 118.89 42.2757ZM117.092 44.1476V43.9396C116.899 43.9396 116.424 43.9396 116.112 43.9396C114.745 43.9396 114.166 44.3408 114.166 45.1876C114.166 45.8264 114.567 46.3316 115.384 46.3316C116.899 46.3316 117.092 45.2916 117.092 44.1476ZM127.402 39.854V45.2767C127.402 46.0196 127.402 46.8961 127.417 47.4904H125.604C125.574 47.2972 125.56 46.8664 125.545 46.5247C125.129 47.327 124.43 47.6687 123.376 47.6687C121.905 47.6687 120.835 46.8367 120.835 44.8459V39.854H122.677V44.4745C122.677 45.3659 122.96 46.1533 123.985 46.1533C125.099 46.1533 125.545 45.5442 125.545 43.8951V39.854H127.402ZM124.876 36.4815H127.075L124.742 38.7101H123.093L124.876 36.4815ZM134.401 36.6301H136.243V45.3807C136.243 46.079 136.243 46.7921 136.258 47.4904H134.49C134.446 47.2824 134.416 46.8218 134.401 46.599C134.03 47.2675 133.332 47.6687 132.158 47.6687C130.212 47.6687 128.993 46.1087 128.993 43.7465C128.993 41.3991 130.301 39.6757 132.44 39.6757C133.629 39.6757 134.223 40.1214 134.401 40.4929V36.6301ZM132.737 41.1763C131.549 41.1763 130.895 42.1122 130.895 43.7019C130.895 45.3064 131.578 46.183 132.663 46.183C134.223 46.183 134.476 44.935 134.476 43.6425C134.476 42.2014 134.238 41.1763 132.737 41.1763ZM144.769 44.0585H139.628C139.628 45.2173 140.208 46.2127 141.337 46.2127C142.332 46.2127 142.629 45.767 142.837 45.2619H144.694C144.412 46.2127 143.58 47.6687 141.292 47.6687C138.811 47.6687 137.756 45.767 137.756 43.7762C137.756 41.4288 138.96 39.6757 141.366 39.6757C143.937 39.6757 144.798 41.6071 144.798 43.4196C144.798 43.6722 144.798 43.8505 144.769 44.0585ZM139.673 42.8848H142.941C142.926 41.8745 142.481 41.0426 141.366 41.0426C140.237 41.0426 139.762 41.8151 139.673 42.8848Z" fill="#6E4FEB"/>
</svg>
